<?xml version="1.0" encoding="UTF-8"?>
<!DOCTYPE svg PUBLIC "-//W3C//DTD SVG 1.1//EN" "http://www.w3.org/Graphics/SVG/1.1/DTD/svg11.dtd">
<svg version="1.1" xmlns="http://www.w3.org/2000/svg" xmlns:xlink="http://www.w3.org/1999/xlink" x="0" y="0" width="232" height="70" viewBox="0, 0, 232, 70">
  <defs>
    <clipPath id="Clip_1">
      <path d="M0.06,0.931 L231.577,0.931 L231.577,70 L0.06,70 z"/>
    </clipPath>
  </defs>
  <g id="Layer_1">
    <path d="M215.885,41.486 C215.884,41.49 215.883,41.492 215.885,41.497 L215.884,41.497 C215.877,53.774 208.303,57.909 199.015,56.337 C192.729,55.275 189.083,54.724 189.084,54.717 L189.084,18.018 C189.085,18.023 192.728,18.562 199.015,19.623 C208.304,21.196 215.876,29.205 215.885,41.476 C215.884,41.48 215.883,41.484 215.885,41.486 M229.586,43.168 C229.568,42.633 229.54,42.104 229.505,41.58 C229.473,41.089 229.432,40.367 229.384,39.884 C229.338,39.431 229.287,38.983 229.228,38.539 C228.348,31.869 225.967,26.088 222.107,21.351 C217.148,15.276 210.006,11.247 200.846,9.653 C198.175,9.19 195.5,8.756 192.825,8.336 C187.089,7.436 181.344,6.63 175.588,5.933 C172.739,5.588 169.887,5.268 167.034,4.973 L167.034,15.297 C169.887,15.592 172.74,15.878 175.588,16.223 L175.588,52.943 C172.739,52.598 169.887,52.317 167.034,52.022 L167.034,62.178 C169.887,62.474 172.74,62.754 175.588,63.098 C183.439,64.05 191.273,65.171 199.082,66.499 C200.384,66.72 201.649,66.893 202.874,67.017 C209.922,67.731 215.693,67.137 220.132,64.472 C221.099,63.893 222.008,63.24 222.846,62.494 C223.862,61.592 224.766,60.559 225.563,59.418 C228.18,55.668 229.596,50.702 229.615,44.985 C229.617,44.373 229.607,43.767 229.586,43.168" fill="#791127"/>
    <path d="M34.819,66.519 C42.654,65.162 48.903,63.038 53.427,59.44 C54.471,58.611 55.423,57.716 56.282,56.758 C59.999,52.616 61.88,47.373 61.86,41.116 L61.86,15.88 C63.77,15.671 65.679,15.459 67.59,15.274 L67.59,4.971 C59.209,5.786 50.844,6.895 42.502,8.138 C42.51,11.59 42.518,14.981 42.527,18.433 C44.472,18.144 46.417,17.832 48.363,17.565 L48.363,43.222 C48.37,45.227 48.058,46.999 47.434,48.539 C47.01,49.586 46.445,50.529 45.722,51.353 C45.25,51.89 44.696,52.38 44.09,52.841 C43.982,52.923 43.886,53.012 43.772,53.092 C43.722,53.129 43.663,53.16 43.611,53.195 C41.774,54.458 39.398,55.412 36.494,56.059 C35.898,56.193 35.279,56.313 34.639,56.421 C34.589,56.429 34.545,56.432 34.497,56.441 C29.449,57.242 25.778,56.8 23.586,55.017 C22.045,53.764 21.2,51.762 21.007,49.059 C20.976,48.641 20.96,48.21 20.961,47.758 L20.961,22.352 C22.894,21.975 24.829,21.582 26.766,21.23 C26.774,17.776 26.782,14.375 26.79,10.921 C18.483,12.434 10.158,14.776 1.962,16.91 L1.962,27.213 C3.841,26.77 5.722,26.076 7.605,25.656 L7.605,50.099 C7.589,56.362 9.439,60.987 13.113,63.905 C16.294,66.433 20.781,67.331 26.504,67.287 C28.935,67.267 31.583,67.033 34.457,66.579 L34.819,66.519" fill="#791127"/>
    <g clip-path="url(#Clip_1)">
      <path d="M112.243,49.71 C107.67,42.682 103.099,35.719 98.529,28.819 L98.529,52.705 C100.476,52.636 102.424,52.579 104.372,52.533 L104.372,59.959 C97.893,60.112 91.415,60.392 84.944,60.799 C82.083,60.979 79.224,61.184 76.366,61.414 L76.366,51.288 C79.224,51.057 82.083,50.852 84.944,50.673 L84.944,13.934 C82.083,14.114 79.224,14.319 76.366,14.549 L76.366,4.169 C79.224,3.939 82.083,3.734 84.944,3.554 C89.04,3.297 93.14,3.09 97.239,2.934 C103.926,13.518 110.619,24.238 117.308,35.093 L117.308,35.095 C117.309,35.095 117.309,35.096 117.31,35.096 C117.31,35.096 117.311,35.094 117.311,35.093 C124.001,24.238 130.694,13.518 137.38,2.934 C141.48,3.09 145.58,3.297 149.675,3.554 C152.537,3.734 155.397,3.939 158.254,4.169 L158.254,14.525 C155.397,14.296 152.537,14.114 149.675,13.934 L149.675,50.673 C152.537,50.852 155.397,51.057 158.254,51.288 L158.254,61.414 C155.397,61.184 152.537,60.979 149.675,60.799 C143.205,60.392 136.727,60.112 130.247,59.959 L130.247,52.533 C132.196,52.579 134.144,52.636 136.091,52.705 L136.091,28.819 C131.521,35.719 126.95,42.682 122.377,49.71 L112.243,49.71" fill="#791127"/>
      <path d="M213.916,42.079 C213.824,46.329 212.736,49.565 210.679,51.704 C208.772,53.688 206.067,54.694 202.64,54.694 C201.594,54.694 200.484,54.595 199.342,54.403 C195.54,53.761 192.699,53.304 191.046,53.043 L191.046,20.308 C192.738,20.575 195.337,20.992 198.687,21.558 C202.903,22.271 206.711,24.481 209.412,27.78 C212.281,31.286 213.835,35.867 213.92,41.052 L213.916,42.079 z M165.072,2.797 L165.072,17.066 L166.831,17.248 L168.008,17.369 C169.854,17.559 171.746,17.755 173.627,17.968 L173.627,50.741 C172,50.559 170.374,50.393 168.787,50.23 L167.236,50.071 L165.072,49.847 L165.072,63.948 L166.832,64.129 C167.375,64.186 167.918,64.242 168.461,64.298 C170.723,64.529 173.063,64.769 175.353,65.046 C183.382,66.018 191.255,67.158 198.753,68.432 C200.095,68.661 201.415,68.841 202.677,68.969 C204.566,69.161 206.356,69.257 207.998,69.257 C213.365,69.257 217.664,68.243 221.143,66.154 C222.247,65.491 223.259,64.753 224.151,63.96 C225.256,62.977 226.273,61.826 227.171,60.541 C230.033,56.441 231.556,51.064 231.577,44.992 C231.579,44.382 231.569,43.745 231.546,43.099 C231.528,42.555 231.499,42 231.463,41.45 L231.44,41.091 C231.411,40.625 231.376,40.097 231.335,39.689 C231.287,39.203 231.232,38.729 231.172,38.28 C230.242,31.227 227.704,25.113 223.627,20.112 C218.271,13.549 210.719,9.381 201.182,7.72 C198.775,7.302 196.216,6.882 193.128,6.398 C187.25,5.475 181.428,4.664 175.825,3.985 C172.969,3.639 170.08,3.315 167.236,3.021 L165.072,2.797 z M202.64,56.656 C210.196,56.656 215.878,52.13 215.884,41.497 L215.885,41.497 C215.883,41.492 215.884,41.49 215.885,41.486 C215.883,41.484 215.884,41.479 215.885,41.477 C215.876,29.205 208.304,21.196 199.014,19.624 C192.728,18.562 189.085,18.023 189.084,18.017 L189.084,54.718 C189.083,54.724 192.729,55.275 199.014,56.338 C200.259,56.548 201.471,56.656 202.64,56.656 M167.034,4.972 C169.887,5.268 172.738,5.588 175.589,5.933 C181.344,6.63 187.089,7.436 192.825,8.336 C195.5,8.756 198.175,9.189 200.846,9.653 C210.006,11.248 217.148,15.276 222.107,21.351 C225.967,26.088 228.348,31.869 229.228,38.538 C229.287,38.983 229.338,39.432 229.384,39.884 C229.432,40.367 229.473,41.089 229.506,41.58 C229.54,42.104 229.568,42.633 229.585,43.168 C229.607,43.767 229.618,44.373 229.616,44.985 C229.596,50.702 228.18,55.668 225.563,59.417 C224.766,60.558 223.862,61.592 222.846,62.494 C222.008,63.24 221.099,63.892 220.133,64.472 C216.821,66.461 212.769,67.296 207.998,67.296 C206.373,67.296 204.664,67.199 202.874,67.017 C201.649,66.894 200.384,66.72 199.082,66.499 C191.273,65.171 183.439,64.049 175.589,63.098 C172.739,62.754 169.887,62.474 167.034,62.178 L167.034,52.022 C169.887,52.317 172.738,52.598 175.589,52.943 L175.589,16.223 C172.739,15.878 169.887,15.592 167.034,15.297 L167.034,4.972" fill="#F5BA54"/>
      <path d="M69.552,2.809 L67.4,3.019 C59.833,3.755 51.83,4.765 42.213,6.198 L40.537,6.447 L40.541,8.143 C40.549,11.594 40.557,14.987 40.565,18.438 L40.572,20.708 L42.816,20.373 C43.448,20.279 44.079,20.183 44.711,20.086 C45.269,20.001 45.834,19.915 46.401,19.83 L46.401,43.222 C46.408,44.962 46.144,46.5 45.616,47.801 C45.267,48.662 44.808,49.421 44.247,50.058 C43.895,50.46 43.455,50.859 42.904,51.278 C42.834,51.331 42.77,51.383 42.705,51.437 C42.689,51.451 42.672,51.465 42.655,51.479 C42.604,51.51 42.552,51.543 42.503,51.576 C40.883,52.69 38.719,53.553 36.067,54.145 C35.515,54.268 34.931,54.383 34.335,54.483 L34.328,54.484 C34.281,54.489 34.234,54.496 34.185,54.504 C32.685,54.742 31.308,54.863 30.098,54.863 C27.714,54.863 25.94,54.403 24.824,53.495 C23.744,52.617 23.118,51.078 22.963,48.919 C22.935,48.524 22.922,48.147 22.923,47.764 L22.923,23.965 C22.961,23.959 22.998,23.951 23.037,23.944 C24.376,23.679 25.761,23.406 27.118,23.159 L28.724,22.867 L28.757,8.569 L26.438,8.991 C19.5,10.255 12.509,12.101 5.747,13.886 C4.317,14.265 2.891,14.641 1.467,15.011 L-0,15.394 L-0,29.691 L2.412,29.122 C3.365,28.897 4.304,28.616 5.213,28.344 C5.358,28.301 5.501,28.258 5.643,28.216 L5.643,50.099 C5.625,56.97 7.728,62.133 11.894,65.441 C15.162,68.04 19.68,69.25 26.111,69.25 C26.246,69.25 26.382,69.25 26.519,69.248 C29.037,69.229 31.811,68.983 34.764,68.516 L35.139,68.454 C43.955,66.927 50.15,64.552 54.647,60.976 C55.776,60.079 56.817,59.101 57.743,58.068 C61.798,53.548 63.843,47.841 63.822,41.109 L63.822,17.639 C65.132,17.496 66.466,17.354 67.779,17.226 L69.552,17.054 L69.552,2.809 z M67.59,4.971 L67.59,15.274 C65.679,15.459 63.77,15.671 61.86,15.879 L61.86,41.116 C61.88,47.373 59.998,52.616 56.282,56.758 C55.423,57.717 54.471,58.61 53.427,59.44 C48.902,63.038 42.655,65.162 34.82,66.519 L34.457,66.579 C31.584,67.033 28.935,67.267 26.504,67.287 C26.372,67.287 26.242,67.288 26.111,67.288 C20.576,67.288 16.221,66.375 13.113,63.906 C9.439,60.987 7.589,56.363 7.605,50.099 L7.605,25.656 C5.722,26.076 3.84,26.77 1.962,27.213 L1.962,16.91 C10.158,14.776 18.483,12.434 26.79,10.921 C26.782,14.375 26.774,17.776 26.766,21.229 C24.829,21.583 22.894,21.976 20.961,22.352 L20.961,47.758 C20.96,48.21 20.977,48.641 21.006,49.058 C21.201,51.762 22.045,53.764 23.586,55.016 C25.08,56.232 27.262,56.825 30.098,56.825 C31.423,56.825 32.89,56.696 34.497,56.44 C34.545,56.432 34.59,56.429 34.639,56.421 C35.279,56.313 35.898,56.193 36.495,56.059 C39.398,55.412 41.774,54.458 43.611,53.195 C43.662,53.16 43.722,53.129 43.771,53.092 C43.885,53.012 43.982,52.923 44.091,52.84 C44.696,52.38 45.25,51.89 45.721,51.353 C46.445,50.529 47.01,49.586 47.434,48.539 C48.058,46.999 48.37,45.227 48.363,43.222 L48.363,17.565 C46.416,17.831 44.472,18.143 42.527,18.433 C42.518,14.982 42.511,11.59 42.502,8.138 C50.845,6.895 59.209,5.786 67.59,4.971" fill="#F5BA54"/>
    </g>
    <path d="M136.326,0.931 L135.722,1.886 C129.554,11.649 123.369,21.55 117.31,31.36 C111.251,21.55 105.066,11.649 98.897,1.886 L98.294,0.931 L97.164,0.973 C93.072,1.129 88.919,1.339 84.821,1.597 C81.978,1.775 79.081,1.983 76.208,2.213 L74.403,2.359 L74.403,16.675 L76.522,16.505 C78.664,16.332 80.829,16.173 82.982,16.028 L82.982,48.834 C80.733,48.984 78.461,49.151 76.208,49.332 L74.403,49.476 L74.403,63.539 L76.522,63.369 C79.34,63.142 82.215,62.936 85.067,62.757 C91.484,62.353 97.995,62.072 104.418,61.921 L106.334,61.875 L106.334,50.524 L104.326,50.572 C103.062,50.601 101.779,50.636 100.491,50.676 L100.491,35.347 C103.88,40.489 107.268,45.66 110.599,50.78 L111.179,51.672 L123.441,51.672 L124.021,50.78 C127.353,45.66 130.739,40.489 134.129,35.347 L134.129,50.676 C132.84,50.636 131.557,50.601 130.293,50.572 L128.287,50.524 L128.287,61.875 L130.202,61.921 C136.625,62.072 143.136,62.353 149.552,62.757 C152.405,62.936 155.28,63.142 158.097,63.369 L160.216,63.539 L160.216,49.476 L158.412,49.332 C156.159,49.151 153.887,48.984 151.637,48.834 L151.637,16.024 C153.709,16.157 155.917,16.306 158.097,16.481 L160.216,16.651 L160.216,2.359 L158.412,2.213 C155.539,1.983 152.642,1.775 149.798,1.597 C145.701,1.339 141.548,1.129 137.455,0.973 L136.326,0.931 z M137.38,2.934 C141.48,3.09 145.58,3.297 149.675,3.554 C152.537,3.734 155.396,3.939 158.254,4.169 L158.254,14.526 C155.396,14.296 152.537,14.115 149.675,13.934 L149.675,50.673 C152.537,50.853 155.396,51.057 158.254,51.287 L158.254,61.414 C155.396,61.184 152.537,60.979 149.675,60.8 C143.205,60.392 136.728,60.112 130.247,59.959 L130.247,52.533 C132.197,52.579 134.144,52.636 136.091,52.705 L136.091,28.819 C131.521,35.719 126.95,42.682 122.377,49.71 L112.243,49.71 C107.67,42.682 103.099,35.719 98.529,28.819 L98.529,52.705 C100.476,52.636 102.424,52.579 104.372,52.533 L104.372,59.959 C97.893,60.112 91.415,60.392 84.944,60.8 C82.083,60.979 79.224,61.184 76.365,61.414 L76.365,51.287 C79.224,51.057 82.083,50.853 84.944,50.673 L84.944,13.934 C82.083,14.115 79.224,14.32 76.365,14.549 L76.365,4.169 C79.224,3.939 82.083,3.734 84.944,3.554 C89.04,3.297 93.14,3.09 97.239,2.934 C103.926,13.518 110.618,24.238 117.309,35.094 L117.309,35.095 C117.309,35.095 117.309,35.095 117.309,35.096 L117.31,35.095 L117.311,35.094 C124.001,24.238 130.694,13.518 137.38,2.934" fill="#F5BA54"/>
    <path d="M223.38,67.294 L224.369,67.294 L224.369,70 L225.06,70 L225.06,67.294 L226.043,67.294 L226.043,66.712 L223.38,66.712 L223.38,67.294" fill="#791127"/>
    <path d="M228.627,66.712 L228.033,69.298 L227.435,66.712 L226.434,66.712 L226.434,70 L227.075,70 L227.075,67.776 C227.075,67.712 227.074,67.623 227.072,67.508 C227.071,67.391 227.07,67.303 227.07,67.241 L227.689,70 L228.357,70 L228.98,67.241 C228.98,67.303 228.979,67.391 228.977,67.508 C228.976,67.623 228.975,67.712 228.975,67.776 L228.975,70 L229.616,70 L229.616,66.712 L228.627,66.712" fill="#791127"/>
  </g>
</svg>
